%FSLAX34Y34*%
%MOMM*%
%LNCOPPER_BOTTOM*%
G71*
G01*
%ADD10C, 0.20*%
%ADD11C, 0.40*%
%ADD12C, 0.15*%
%ADD13C, 0.14*%
%ADD14C, 0.11*%
%ADD15C, 0.11*%
%ADD16C, 0.50*%
%ADD17C, 0.17*%
%ADD18C, 0.24*%
%ADD19C, 0.32*%
%ADD20C, 1.00*%
%LPD*%
G54D10*
X18036Y-163342D02*
X68836Y-163342D01*
X87886Y-163342D01*
X87886Y-61742D01*
X18036Y-61742D01*
X18036Y-74442D01*
X24386Y-74442D01*
X24386Y-99842D01*
X18036Y-99842D01*
X18036Y-125242D01*
X24386Y-125242D01*
X24386Y-150642D01*
X18036Y-150642D01*
X18036Y-163342D01*
X68836Y-163342D01*
X68836Y-61742D01*
X68836Y-163342D01*
X18036Y-163342D01*
X18036Y-61742D01*
G54D10*
X18036Y-264942D02*
X68836Y-264942D01*
X87886Y-264942D01*
X87886Y-163342D01*
X18036Y-163342D01*
X18036Y-176042D01*
X24386Y-176042D01*
X24386Y-201442D01*
X18036Y-201442D01*
X18036Y-226842D01*
X24386Y-226842D01*
X24386Y-252242D01*
X18036Y-252242D01*
X18036Y-264942D01*
X68836Y-264942D01*
X68836Y-163342D01*
X68836Y-264942D01*
X18036Y-264942D01*
X18036Y-163342D01*
G54D10*
X483988Y-61654D02*
X433188Y-61654D01*
X414138Y-61654D01*
X414138Y-163254D01*
X483988Y-163254D01*
X483987Y-150554D01*
X477638Y-150554D01*
X477638Y-125154D01*
X483987Y-125154D01*
X483988Y-99754D01*
X477638Y-99754D01*
X477638Y-74354D01*
X483988Y-74354D01*
X483988Y-61654D01*
X433188Y-61654D01*
X433188Y-163254D01*
X433188Y-61654D01*
X483988Y-61654D01*
X483988Y-163254D01*
G54D10*
X18036Y-366542D02*
X68836Y-366542D01*
X87886Y-366542D01*
X87886Y-264942D01*
X18036Y-264942D01*
X18036Y-277642D01*
X24386Y-277642D01*
X24386Y-303042D01*
X18036Y-303042D01*
X18036Y-328442D01*
X24386Y-328442D01*
X24386Y-353842D01*
X18036Y-353842D01*
X18036Y-366542D01*
X68836Y-366542D01*
X68836Y-264942D01*
X68836Y-366542D01*
X18036Y-366542D01*
X18036Y-264942D01*
G54D10*
X483988Y-163254D02*
X433188Y-163254D01*
X414138Y-163254D01*
X414138Y-264854D01*
X483988Y-264854D01*
X483987Y-252154D01*
X477638Y-252154D01*
X477638Y-226754D01*
X483988Y-226754D01*
X483988Y-201354D01*
X477638Y-201354D01*
X477638Y-175954D01*
X483988Y-175954D01*
X483988Y-163254D01*
X433188Y-163254D01*
X433188Y-264854D01*
X433188Y-163254D01*
X483988Y-163254D01*
X483988Y-264854D01*
G54D10*
X483988Y-264854D02*
X433188Y-264854D01*
X414137Y-264854D01*
X414138Y-366454D01*
X483988Y-366454D01*
X483988Y-353754D01*
X477637Y-353754D01*
X477638Y-328354D01*
X483988Y-328354D01*
X483988Y-302954D01*
X477638Y-302954D01*
X477638Y-277554D01*
X483988Y-277554D01*
X483988Y-264854D01*
X433188Y-264854D01*
X433188Y-366454D01*
X433188Y-264854D01*
X483988Y-264854D01*
X483988Y-366454D01*
G54D11*
G75*
G01X208267Y-24125D02*
G03X208267Y-24125I0J1600D01*
G01*
G54D12*
X258749Y-14450D02*
X234849Y-14450D01*
X234849Y-23950D01*
X225449Y-23950D01*
X225449Y-14450D01*
X201549Y-14449D01*
X201549Y-90650D01*
X258749Y-90650D01*
X258749Y-14450D01*
G54D12*
X150758Y-55142D02*
X150758Y-67942D01*
X125358Y-67942D01*
X125358Y-55142D01*
X150758Y-55142D01*
G54D12*
X144358Y-67942D02*
X144358Y-55142D01*
G54D10*
G75*
G01X138142Y-39408D02*
G03X138142Y-39408I0J-22200D01*
G01*
G54D12*
X131796Y-99763D02*
X144596Y-99762D01*
X144596Y-125162D01*
X131796Y-125162D01*
X131796Y-99763D01*
G54D12*
X144596Y-106162D02*
X131796Y-106162D01*
G54D10*
G75*
G01X116062Y-112379D02*
G03X116062Y-112379I22200J0D01*
G01*
G54D10*
X345225Y-107196D02*
X351575Y-107196D01*
X370625Y-88146D01*
X370625Y-62746D01*
X351575Y-43696D01*
X345225Y-43696D01*
G54D10*
X332525Y-43696D02*
X326175Y-43696D01*
X326175Y-107196D01*
X332525Y-107196D01*
G54D13*
X314325Y-76396D02*
X322325Y-76396D01*
X322325Y-79396D01*
X321825Y-80596D01*
X320825Y-81196D01*
X319825Y-81196D01*
X318825Y-80596D01*
X318325Y-79396D01*
X317825Y-80596D01*
X316825Y-81196D01*
X315825Y-81196D01*
X314825Y-80596D01*
X314325Y-79396D01*
X314325Y-76396D01*
G54D13*
X318325Y-76396D02*
X318325Y-79396D01*
G54D13*
X314325Y-106796D02*
X314325Y-102596D01*
X322325Y-102596D01*
X322325Y-106796D01*
G54D13*
X318325Y-102596D02*
X318325Y-106796D01*
G54D13*
X317025Y-54796D02*
X316025Y-54196D01*
X315525Y-52996D01*
X315525Y-51796D01*
X316025Y-50596D01*
X317025Y-49996D01*
X322025Y-49996D01*
X323025Y-50596D01*
X323525Y-51796D01*
X323525Y-52996D01*
X323025Y-54196D01*
X322025Y-54796D01*
G54D14*
X343752Y-57968D02*
X352641Y-57968D01*
X352641Y-61301D01*
X352085Y-62634D01*
X350974Y-63301D01*
X349863Y-63301D01*
X348752Y-62634D01*
X348196Y-61301D01*
X347641Y-62634D01*
X346530Y-63301D01*
X345419Y-63301D01*
X344308Y-62634D01*
X343752Y-61301D01*
X343752Y-57968D01*
G54D14*
X348196Y-57968D02*
X348196Y-61301D01*
G54D14*
X345419Y-71001D02*
X344308Y-70334D01*
X343752Y-69001D01*
X343752Y-67668D01*
X344308Y-66334D01*
X345419Y-65668D01*
X350974Y-65668D01*
X352085Y-66334D01*
X352641Y-67668D01*
X352641Y-69001D01*
X352085Y-70334D01*
X350974Y-71001D01*
G54D14*
X352641Y-78701D02*
X352641Y-73368D01*
X348752Y-73368D01*
X348752Y-74034D01*
X349308Y-75368D01*
X349308Y-76701D01*
X348752Y-78034D01*
X347641Y-78701D01*
X345419Y-78701D01*
X344308Y-78034D01*
X343752Y-76701D01*
X343752Y-75368D01*
X344308Y-74034D01*
X345419Y-73368D01*
G54D14*
X350974Y-86401D02*
X352085Y-85734D01*
X352641Y-84401D01*
X352641Y-83068D01*
X352085Y-81734D01*
X350974Y-81068D01*
X348196Y-81068D01*
X347641Y-81068D01*
X348752Y-83068D01*
X348752Y-84401D01*
X348196Y-85734D01*
X347085Y-86401D01*
X345419Y-86401D01*
X344308Y-85734D01*
X343752Y-84401D01*
X343752Y-83068D01*
X344308Y-81734D01*
X345419Y-81068D01*
X348196Y-81068D01*
G54D14*
X350974Y-94101D02*
X345419Y-94101D01*
X344308Y-93434D01*
X343752Y-92101D01*
X343752Y-90768D01*
X344308Y-89434D01*
X345419Y-88768D01*
X350974Y-88768D01*
X352085Y-89434D01*
X352641Y-90768D01*
X352641Y-92101D01*
X352085Y-93434D01*
X350974Y-94101D01*
G54D14*
X81976Y-293962D02*
X73088Y-293962D01*
X73088Y-298629D01*
G54D14*
X73088Y-301062D02*
X78087Y-301062D01*
G54D14*
X79754Y-301062D02*
X79754Y-301062D01*
G54D14*
X73088Y-303462D02*
X78088Y-303462D01*
G54D14*
X76976Y-303462D02*
X77754Y-304129D01*
X78087Y-305463D01*
X77754Y-306796D01*
X76976Y-307463D01*
X73087Y-307462D01*
G54D14*
X73643Y-313862D02*
X73088Y-312796D01*
X73088Y-311463D01*
X73643Y-310129D01*
X74754Y-309862D01*
X76643Y-309862D01*
X77754Y-310529D01*
X78088Y-311862D01*
X77754Y-313196D01*
X76976Y-313862D01*
X75865Y-313862D01*
X75865Y-309862D01*
G54D14*
X80310Y-324096D02*
X74754Y-324096D01*
X73643Y-323429D01*
X73088Y-322096D01*
X73088Y-320762D01*
X73643Y-319429D01*
X74754Y-318762D01*
X80310Y-318762D01*
X81421Y-319429D01*
X81976Y-320762D01*
X81976Y-322096D01*
X81421Y-323429D01*
X80310Y-324096D01*
G54D14*
X81976Y-326462D02*
X74754Y-326462D01*
X73643Y-327129D01*
X73087Y-328462D01*
X73088Y-329796D01*
X73643Y-331129D01*
X74754Y-331796D01*
X81976Y-331796D01*
G54D14*
X73088Y-336829D02*
X81976Y-336829D01*
G54D14*
X81976Y-334162D02*
X81976Y-339496D01*
G54D15*
X81976Y-190488D02*
X73087Y-190488D01*
X73087Y-195154D01*
G54D15*
X73087Y-197598D02*
X78087Y-197598D01*
G54D15*
X79754Y-197598D02*
X79754Y-197598D01*
G54D15*
X73087Y-200042D02*
X78087Y-200042D01*
G54D15*
X76976Y-200042D02*
X77754Y-200709D01*
X78087Y-202042D01*
X77754Y-203376D01*
X76976Y-204042D01*
X73087Y-204042D01*
G54D15*
X73643Y-210486D02*
X73087Y-209420D01*
X73087Y-208086D01*
X73643Y-206753D01*
X74754Y-206486D01*
X76643Y-206486D01*
X77754Y-207153D01*
X78087Y-208486D01*
X77754Y-209820D01*
X76976Y-210486D01*
X75865Y-210486D01*
X75865Y-206486D01*
G54D15*
X73087Y-215508D02*
X81976Y-215508D01*
G54D15*
X73087Y-217952D02*
X81976Y-217952D01*
X73087Y-223285D01*
X81976Y-223285D01*
G54D15*
X73087Y-225728D02*
X81976Y-231062D01*
G54D15*
X73087Y-233506D02*
X81976Y-233506D01*
X76421Y-236839D01*
X81976Y-240172D01*
X73087Y-240172D01*
G54D15*
X73087Y-242616D02*
X81976Y-242616D01*
G54D15*
X74754Y-250394D02*
X73643Y-249727D01*
X73087Y-248394D01*
X73087Y-247060D01*
X73643Y-245727D01*
X74754Y-245060D01*
X80310Y-245060D01*
X81421Y-245727D01*
X81976Y-247060D01*
X81976Y-248394D01*
X81421Y-249727D01*
X80310Y-250394D01*
G54D14*
X77532Y-79635D02*
X76421Y-81635D01*
X75310Y-82302D01*
X73088Y-82302D01*
G54D14*
X73087Y-76969D02*
X81976Y-76969D01*
X81976Y-80302D01*
X81421Y-81635D01*
X80310Y-82302D01*
X79199Y-82302D01*
X78088Y-81635D01*
X77532Y-80302D01*
X77532Y-76969D01*
G54D14*
X73088Y-87335D02*
X81976Y-87335D01*
G54D14*
X81976Y-84669D02*
X81976Y-90002D01*
G54D14*
X74754Y-92369D02*
X73643Y-93035D01*
X73087Y-94369D01*
X73088Y-95702D01*
X73643Y-97035D01*
X74754Y-97702D01*
X75865Y-97702D01*
X76976Y-97035D01*
X77532Y-95702D01*
X77532Y-94369D01*
X78087Y-93035D01*
X79199Y-92369D01*
X80310Y-92369D01*
X81421Y-93035D01*
X81976Y-94369D01*
X81976Y-95702D01*
X81421Y-97035D01*
X80310Y-97702D01*
G54D14*
X77532Y-127260D02*
X77532Y-129927D01*
X74754Y-129927D01*
X73643Y-129260D01*
X73087Y-127927D01*
X73087Y-126594D01*
X73643Y-125260D01*
X74754Y-124594D01*
X80310Y-124594D01*
X81421Y-125260D01*
X81976Y-126594D01*
X81976Y-127927D01*
X81421Y-129260D01*
X80310Y-129927D01*
G54D14*
X73088Y-132294D02*
X81976Y-132294D01*
X73087Y-137627D01*
X81976Y-137627D01*
G54D14*
X73088Y-139994D02*
X81976Y-139994D01*
X81976Y-143327D01*
X81421Y-144660D01*
X80310Y-145327D01*
X74754Y-145327D01*
X73643Y-144660D01*
X73088Y-143327D01*
X73088Y-139994D01*
G54D14*
X423607Y-143454D02*
X423607Y-140788D01*
X426385Y-140788D01*
X427496Y-141454D01*
X428051Y-142788D01*
X428051Y-144121D01*
X427496Y-145454D01*
X426385Y-146121D01*
X420829Y-146121D01*
X419718Y-145454D01*
X419162Y-144121D01*
X419162Y-142788D01*
X419718Y-141454D01*
X420829Y-140788D01*
G54D14*
X428051Y-138421D02*
X419162Y-138421D01*
X428051Y-133088D01*
X419162Y-133088D01*
G54D14*
X428051Y-130721D02*
X419162Y-130721D01*
X419162Y-127388D01*
X419718Y-126054D01*
X420829Y-125388D01*
X426385Y-125388D01*
X427496Y-126054D01*
X428051Y-127388D01*
X428051Y-130721D01*
G54D14*
X429016Y-101229D02*
X420127Y-101229D01*
X420127Y-97895D01*
X420683Y-96562D01*
X421794Y-95895D01*
X422905Y-95895D01*
X424016Y-96562D01*
X424572Y-97895D01*
X424572Y-101229D01*
G54D14*
X429016Y-90862D02*
X420127Y-90862D01*
G54D14*
X420127Y-93529D02*
X420127Y-88195D01*
G54D14*
X429016Y-83162D02*
X420127Y-83162D01*
G54D14*
X420127Y-85829D02*
X420127Y-80495D01*
G54D15*
X425954Y-241039D02*
X427065Y-240372D01*
X427620Y-239039D01*
X427620Y-237706D01*
X427065Y-236372D01*
X425954Y-235706D01*
X424843Y-235706D01*
X423731Y-236372D01*
X423176Y-237706D01*
X423176Y-239039D01*
X422620Y-240372D01*
X421509Y-241039D01*
X420398Y-241039D01*
X419287Y-240372D01*
X418731Y-239039D01*
X418731Y-237706D01*
X419287Y-236372D01*
X420398Y-235706D01*
G54D15*
X427620Y-233262D02*
X418731Y-233262D01*
X418731Y-229929D01*
X419287Y-228595D01*
X420398Y-227929D01*
X421509Y-227928D01*
X422620Y-228595D01*
X423176Y-229928D01*
X423176Y-233262D01*
G54D15*
X427620Y-220818D02*
X427620Y-225485D01*
X418731Y-225485D01*
X418731Y-220818D01*
G54D15*
X423176Y-225485D02*
X423176Y-220818D01*
G54D15*
X427620Y-218374D02*
X418731Y-215041D01*
X427620Y-211707D01*
G54D15*
X424287Y-217041D02*
X424287Y-213041D01*
G54D15*
X427620Y-209263D02*
X418731Y-209263D01*
G54D15*
X424843Y-209263D02*
X418731Y-203930D01*
G54D15*
X423176Y-207263D02*
X427620Y-203930D01*
G54D15*
X427620Y-196819D02*
X427620Y-201486D01*
X418731Y-201486D01*
X418731Y-196819D01*
G54D15*
X423176Y-201486D02*
X423176Y-196819D01*
G54D15*
X423176Y-191708D02*
X424287Y-189708D01*
X425398Y-189042D01*
X427620Y-189042D01*
G54D15*
X427620Y-194375D02*
X418731Y-194375D01*
X418731Y-191042D01*
X419287Y-189708D01*
X420398Y-189042D01*
X421509Y-189042D01*
X422620Y-189708D01*
X423176Y-191042D01*
X423176Y-194375D01*
G54D15*
X428036Y-350479D02*
X419147Y-350479D01*
X424702Y-347146D01*
X419147Y-343813D01*
X428036Y-343813D01*
G54D15*
X428036Y-341368D02*
X419147Y-341368D01*
G54D15*
X426369Y-333591D02*
X427480Y-334258D01*
X428036Y-335591D01*
X428036Y-336924D01*
X427480Y-338258D01*
X426369Y-338924D01*
X420814Y-338924D01*
X419702Y-338258D01*
X419147Y-336924D01*
X419147Y-335591D01*
X419702Y-334258D01*
X420814Y-333591D01*
G54D15*
X423591Y-328481D02*
X424702Y-326481D01*
X425814Y-325814D01*
X428036Y-325814D01*
G54D15*
X428036Y-331147D02*
X419147Y-331147D01*
X419147Y-327814D01*
X419702Y-326481D01*
X420814Y-325814D01*
X421925Y-325814D01*
X423036Y-326481D01*
X423591Y-327814D01*
X423591Y-331147D01*
G54D15*
X420814Y-318037D02*
X426369Y-318037D01*
X427480Y-318704D01*
X428036Y-320037D01*
X428036Y-321370D01*
X427480Y-322704D01*
X426369Y-323370D01*
X420814Y-323370D01*
X419702Y-322704D01*
X419147Y-321370D01*
X419147Y-320037D01*
X419702Y-318704D01*
X420814Y-318037D01*
G54D15*
X428036Y-315593D02*
X419147Y-315593D01*
X419147Y-312260D01*
X419702Y-310927D01*
X420814Y-310260D01*
X421925Y-310260D01*
X423036Y-310927D01*
X423591Y-312260D01*
X423591Y-315593D01*
G54D15*
X428036Y-307816D02*
X419147Y-307816D01*
G54D15*
X428036Y-302483D02*
X419147Y-302483D01*
G54D15*
X423591Y-307816D02*
X423591Y-302483D01*
G54D15*
X420814Y-294706D02*
X426369Y-294706D01*
X427480Y-295373D01*
X428036Y-296706D01*
X428036Y-298039D01*
X427480Y-299373D01*
X426369Y-300039D01*
X420814Y-300039D01*
X419702Y-299373D01*
X419147Y-298039D01*
X419147Y-296706D01*
X419702Y-295373D01*
X420814Y-294706D01*
G54D15*
X428036Y-292262D02*
X419147Y-292262D01*
X428036Y-286929D01*
X419147Y-286929D01*
G54D15*
X428036Y-279819D02*
X428036Y-284485D01*
X419147Y-284485D01*
X419147Y-279819D01*
G54D15*
X423591Y-284485D02*
X423591Y-279819D01*
G54D14*
X233675Y-61387D02*
X224786Y-61387D01*
X230342Y-65387D01*
X231453Y-65387D01*
X231453Y-60054D01*
G54D14*
X233675Y-57687D02*
X224786Y-57687D01*
X233675Y-52354D01*
X224786Y-52354D01*
G54D14*
X233675Y-44654D02*
X233675Y-49987D01*
X233120Y-49987D01*
X232009Y-49321D01*
X228675Y-45321D01*
X227564Y-44654D01*
X226453Y-44654D01*
X225342Y-45321D01*
X224786Y-46654D01*
X224786Y-47987D01*
X225342Y-49321D01*
X226453Y-49987D01*
G54D14*
X224786Y-36954D02*
X224786Y-42287D01*
X228675Y-42287D01*
X228675Y-41621D01*
X228120Y-40287D01*
X228120Y-38954D01*
X228675Y-37621D01*
X229786Y-36954D01*
X232009Y-36954D01*
X233120Y-37621D01*
X233675Y-38954D01*
X233675Y-40287D01*
X233120Y-41621D01*
X232009Y-42287D01*
G54D15*
X174845Y-41275D02*
X165956Y-41275D01*
X165956Y-45942D01*
G54D15*
X166512Y-52386D02*
X165956Y-51319D01*
X165956Y-49986D01*
X166512Y-48653D01*
X167623Y-48386D01*
X169512Y-48386D01*
X170623Y-49053D01*
X170956Y-50386D01*
X170623Y-51719D01*
X169845Y-52386D01*
X168734Y-52386D01*
X168734Y-48386D01*
G54D15*
X165956Y-58830D02*
X174845Y-58830D01*
G54D15*
X169512Y-58830D02*
X170623Y-58163D01*
X170956Y-56830D01*
X170623Y-55497D01*
X169512Y-54830D01*
X167290Y-54830D01*
X166178Y-55497D01*
X165956Y-56830D01*
X166178Y-58163D01*
X167290Y-58830D01*
G54D15*
X165956Y-66518D02*
X174845Y-66518D01*
G54D15*
X174845Y-63851D02*
X174845Y-69184D01*
G54D15*
X174845Y-71628D02*
X165956Y-78295D01*
G54D15*
X165956Y-71628D02*
X174845Y-78295D01*
G54D15*
X110551Y-92075D02*
X101663Y-92075D01*
X101663Y-96742D01*
G54D15*
X102218Y-103186D02*
X101663Y-102119D01*
X101663Y-100786D01*
X102218Y-99453D01*
X103329Y-99186D01*
X105218Y-99186D01*
X106329Y-99853D01*
X106663Y-101186D01*
X106329Y-102519D01*
X105551Y-103186D01*
X104440Y-103186D01*
X104440Y-99186D01*
G54D15*
X101663Y-109630D02*
X110551Y-109630D01*
G54D15*
X105218Y-109630D02*
X106329Y-108963D01*
X106663Y-107630D01*
X106329Y-106297D01*
X105218Y-105630D01*
X102996Y-105630D01*
X101885Y-106297D01*
X101663Y-107630D01*
X101885Y-108963D01*
X102996Y-109630D01*
G54D15*
X106107Y-117318D02*
X104996Y-119318D01*
X103885Y-119984D01*
X101663Y-119984D01*
G54D15*
X101663Y-114651D02*
X110551Y-114651D01*
X110551Y-117984D01*
X109996Y-119318D01*
X108885Y-119984D01*
X107774Y-119984D01*
X106663Y-119318D01*
X106107Y-117984D01*
X106107Y-114651D01*
G54D15*
X110551Y-122428D02*
X101663Y-129095D01*
G54D15*
X101663Y-122428D02*
X110551Y-129095D01*
G54D10*
X409515Y-242071D02*
X409515Y-212671D01*
G54D10*
G75*
G01X351103Y-242299D02*
G03X384068Y-259460I28512J14528D01*
G01*
G54D10*
G75*
G01X383515Y-196010D02*
G03X351627Y-212257I-3900J-31761D01*
G01*
G54D10*
G75*
G01X379615Y-214771D02*
G03X379615Y-214771I0J-12000D01*
G01*
G54D10*
X73369Y-394750D02*
X73369Y-424150D01*
G54D10*
G75*
G01X131781Y-394523D02*
G03X98815Y-377362I-28512J-14527D01*
G01*
G54D10*
G75*
G01X99369Y-440812D02*
G03X131257Y-424564I3900J31762D01*
G01*
G54D10*
G75*
G01X103269Y-422050D02*
G03X103269Y-422050I0J12000D01*
G01*
G54D10*
X152666Y-313402D02*
X332666Y-313402D01*
X332666Y-133402D01*
X152666Y-133402D01*
X152666Y-313402D01*
G54D16*
X162998Y-302590D02*
X162998Y-301796D01*
G54D17*
X203285Y-252813D02*
X204952Y-253479D01*
X205785Y-254813D01*
X205785Y-256146D01*
X204952Y-257479D01*
X203285Y-258146D01*
X194952Y-258146D01*
X193285Y-257479D01*
X192452Y-256146D01*
X192452Y-254813D01*
X193285Y-253479D01*
X194952Y-252813D01*
G54D17*
X199119Y-246479D02*
X200785Y-244479D01*
X202452Y-243813D01*
X205785Y-243813D01*
G54D17*
X205785Y-249146D02*
X192452Y-249146D01*
X192452Y-245813D01*
X193285Y-244479D01*
X194952Y-243813D01*
X196619Y-243813D01*
X198285Y-244479D01*
X199119Y-245813D01*
X199118Y-249146D01*
G54D17*
X205785Y-240146D02*
X192452Y-240146D01*
G54D17*
X205785Y-233779D02*
X192452Y-233779D01*
G54D17*
X192452Y-236446D02*
X192452Y-231113D01*
G54D17*
X203285Y-222113D02*
X204952Y-222779D01*
X205785Y-224113D01*
X205785Y-225446D01*
X204952Y-226779D01*
X203285Y-227446D01*
X194952Y-227446D01*
X193285Y-226779D01*
X192452Y-225446D01*
X192452Y-224113D01*
X193285Y-222779D01*
X194952Y-222113D01*
G54D17*
X205785Y-218446D02*
X192452Y-218446D01*
G54D17*
X205785Y-213113D02*
X192452Y-213113D01*
G54D17*
X199118Y-218446D02*
X199119Y-213113D01*
G54D17*
X192452Y-209446D02*
X205785Y-209446D01*
X205785Y-204779D01*
G54D17*
X205785Y-196379D02*
X205785Y-201046D01*
X192452Y-201046D01*
X192452Y-196379D01*
G54D17*
X199118Y-201046D02*
X199119Y-196379D01*
G54D17*
X192452Y-192646D02*
X199119Y-189313D01*
X205785Y-189313D01*
G54D17*
X199119Y-189313D02*
X192452Y-185979D01*
G54D17*
X222335Y-239834D02*
X224002Y-239167D01*
X224835Y-237834D01*
X224835Y-236500D01*
X224002Y-235167D01*
X222335Y-234500D01*
X218168Y-234500D01*
X217335Y-234500D01*
X219002Y-236500D01*
X219002Y-237834D01*
X218168Y-239167D01*
X216502Y-239834D01*
X214002Y-239834D01*
X212335Y-239167D01*
X211502Y-237834D01*
X211502Y-236500D01*
X212335Y-235167D01*
X214002Y-234500D01*
X218168Y-234500D01*
G54D17*
X214002Y-225500D02*
X222335Y-225500D01*
X224002Y-226167D01*
X224835Y-227500D01*
X224835Y-228834D01*
X224002Y-230167D01*
X222335Y-230834D01*
X214002Y-230834D01*
X212335Y-230167D01*
X211502Y-228834D01*
X211502Y-227500D01*
X212335Y-226167D01*
X214002Y-225500D01*
G54D17*
X214002Y-216500D02*
X222335Y-216500D01*
X224002Y-217167D01*
X224835Y-218500D01*
X224835Y-219834D01*
X224002Y-221167D01*
X222335Y-221834D01*
X214002Y-221834D01*
X212335Y-221167D01*
X211502Y-219834D01*
X211502Y-218500D01*
X212335Y-217167D01*
X214002Y-216500D01*
G54D17*
X214002Y-207500D02*
X222335Y-207500D01*
X224002Y-208167D01*
X224835Y-209500D01*
X224835Y-210834D01*
X224002Y-212167D01*
X222335Y-212834D01*
X214002Y-212834D01*
X212335Y-212167D01*
X211502Y-210834D01*
X211502Y-209500D01*
X212335Y-208167D01*
X214002Y-207500D01*
G54D17*
X240591Y-249588D02*
X242258Y-250254D01*
X243091Y-251588D01*
X243091Y-252921D01*
X242258Y-254254D01*
X240591Y-254921D01*
X232258Y-254921D01*
X230591Y-254254D01*
X229758Y-252921D01*
X229758Y-251588D01*
X230591Y-250254D01*
X232258Y-249588D01*
G54D17*
X236425Y-243254D02*
X238091Y-241254D01*
X239758Y-240588D01*
X243091Y-240588D01*
G54D17*
X243091Y-245921D02*
X229758Y-245921D01*
X229758Y-242588D01*
X230591Y-241254D01*
X232258Y-240588D01*
X233925Y-240588D01*
X235591Y-241254D01*
X236425Y-242588D01*
X236425Y-245921D01*
G54D17*
X243091Y-236921D02*
X229758Y-231588D01*
G54D17*
X232258Y-222588D02*
X240591Y-222588D01*
X242258Y-223254D01*
X243091Y-224588D01*
X243091Y-225921D01*
X242258Y-227254D01*
X240591Y-227921D01*
X232258Y-227921D01*
X230591Y-227254D01*
X229758Y-225921D01*
X229758Y-224588D01*
X230591Y-223254D01*
X232258Y-222588D01*
G54D17*
X232258Y-213588D02*
X240591Y-213588D01*
X242258Y-214254D01*
X243091Y-215588D01*
X243091Y-216921D01*
X242258Y-218254D01*
X240591Y-218921D01*
X232258Y-218921D01*
X230591Y-218254D01*
X229758Y-216921D01*
X229758Y-215588D01*
X230591Y-214254D01*
X232258Y-213588D01*
G54D17*
X229758Y-204588D02*
X229758Y-209921D01*
X235591Y-209921D01*
X235591Y-209254D01*
X234758Y-207921D01*
X234758Y-206588D01*
X235591Y-205254D01*
X237258Y-204588D01*
X240591Y-204588D01*
X242258Y-205254D01*
X243091Y-206588D01*
X243091Y-207921D01*
X242258Y-209254D01*
X240591Y-209921D01*
G54D17*
X240591Y-200921D02*
X242258Y-200254D01*
X243091Y-198921D01*
X243091Y-197588D01*
X242258Y-196254D01*
X240591Y-195588D01*
X236425Y-195588D01*
X235591Y-195588D01*
X237258Y-197588D01*
X237258Y-198921D01*
X236425Y-200254D01*
X234758Y-200921D01*
X232258Y-200921D01*
X230591Y-200254D01*
X229758Y-198921D01*
X229758Y-197588D01*
X230591Y-196254D01*
X232258Y-195588D01*
X236425Y-195588D01*
G54D17*
X176814Y-277721D02*
X171814Y-274388D01*
X185148Y-274388D01*
G54D17*
X312148Y-273927D02*
X298814Y-273927D01*
X307148Y-277927D01*
X308814Y-277927D01*
X308814Y-272594D01*
G54D17*
X173521Y-172359D02*
X171854Y-171692D01*
X171021Y-170359D01*
X171021Y-169025D01*
X171854Y-167692D01*
X173521Y-167025D01*
X175187Y-167025D01*
X176854Y-167692D01*
X177687Y-169025D01*
X178521Y-167692D01*
X180187Y-167025D01*
X181854Y-167025D01*
X183521Y-167692D01*
X184354Y-169025D01*
X184354Y-170359D01*
X183521Y-171692D01*
X181854Y-172359D01*
G54D17*
X301314Y-167025D02*
X299648Y-167692D01*
X298814Y-169025D01*
X298814Y-170359D01*
X299648Y-171692D01*
X301314Y-172359D01*
X305481Y-172359D01*
X306314Y-172359D01*
X304648Y-170359D01*
X304648Y-169025D01*
X305481Y-167692D01*
X307148Y-167025D01*
X309648Y-167025D01*
X311314Y-167692D01*
X312148Y-169025D01*
X312148Y-170359D01*
X311314Y-171692D01*
X309648Y-172359D01*
X305481Y-172359D01*
G54D10*
X254279Y-259727D02*
X267773Y-259727D01*
X267773Y-186702D01*
X267773Y-185909D01*
X254279Y-185909D01*
G54D10*
X286754Y-259727D02*
X273260Y-259727D01*
X273260Y-186702D01*
X273260Y-185909D01*
X286754Y-185909D01*
G54D10*
X152666Y-504696D02*
X332666Y-504696D01*
X332666Y-324696D01*
X152666Y-324696D01*
X152666Y-504696D01*
G54D16*
X162998Y-493884D02*
X162998Y-493090D01*
G54D17*
X203285Y-444106D02*
X204952Y-444773D01*
X205785Y-446106D01*
X205785Y-447440D01*
X204952Y-448773D01*
X203285Y-449440D01*
X194952Y-449440D01*
X193285Y-448773D01*
X192452Y-447440D01*
X192452Y-446106D01*
X193285Y-444773D01*
X194952Y-444106D01*
G54D17*
X199119Y-437773D02*
X200785Y-435773D01*
X202452Y-435106D01*
X205785Y-435106D01*
G54D17*
X205785Y-440440D02*
X192452Y-440440D01*
X192452Y-437106D01*
X193285Y-435773D01*
X194952Y-435106D01*
X196618Y-435106D01*
X198285Y-435773D01*
X199119Y-437106D01*
X199118Y-440440D01*
G54D17*
X205785Y-431440D02*
X192452Y-431440D01*
G54D17*
X205785Y-425073D02*
X192452Y-425073D01*
G54D17*
X192452Y-427740D02*
X192452Y-422406D01*
G54D17*
X203285Y-413406D02*
X204952Y-414073D01*
X205785Y-415406D01*
X205785Y-416740D01*
X204952Y-418073D01*
X203285Y-418740D01*
X194952Y-418740D01*
X193285Y-418073D01*
X192452Y-416740D01*
X192452Y-415406D01*
X193285Y-414073D01*
X194952Y-413406D01*
G54D17*
X205785Y-409740D02*
X192452Y-409740D01*
G54D17*
X205785Y-404406D02*
X192452Y-404406D01*
G54D17*
X199118Y-409740D02*
X199118Y-404406D01*
G54D17*
X192452Y-400740D02*
X205785Y-400740D01*
X205785Y-396073D01*
G54D17*
X205785Y-387673D02*
X205785Y-392340D01*
X192452Y-392340D01*
X192452Y-387673D01*
G54D17*
X199119Y-392340D02*
X199119Y-387673D01*
G54D17*
X192452Y-383940D02*
X199119Y-380606D01*
X205785Y-380606D01*
G54D17*
X199119Y-380606D02*
X192452Y-377273D01*
G54D17*
X222335Y-431127D02*
X224002Y-430461D01*
X224835Y-429127D01*
X224835Y-427794D01*
X224002Y-426461D01*
X222335Y-425794D01*
X218168Y-425794D01*
X217335Y-425794D01*
X219002Y-427794D01*
X219002Y-429127D01*
X218168Y-430461D01*
X216502Y-431127D01*
X214002Y-431127D01*
X212335Y-430461D01*
X211502Y-429127D01*
X211502Y-427794D01*
X212335Y-426461D01*
X214002Y-425794D01*
X218168Y-425794D01*
G54D17*
X214002Y-416794D02*
X222335Y-416794D01*
X224002Y-417461D01*
X224835Y-418794D01*
X224835Y-420127D01*
X224002Y-421461D01*
X222335Y-422127D01*
X214002Y-422127D01*
X212335Y-421461D01*
X211502Y-420127D01*
X211502Y-418794D01*
X212335Y-417461D01*
X214002Y-416794D01*
G54D17*
X214002Y-407794D02*
X222335Y-407794D01*
X224002Y-408461D01*
X224835Y-409794D01*
X224835Y-411127D01*
X224002Y-412461D01*
X222335Y-413127D01*
X214002Y-413127D01*
X212335Y-412461D01*
X211502Y-411127D01*
X211502Y-409794D01*
X212335Y-408461D01*
X214002Y-407794D01*
G54D17*
X214002Y-398794D02*
X222335Y-398794D01*
X224002Y-399461D01*
X224835Y-400794D01*
X224835Y-402127D01*
X224002Y-403461D01*
X222335Y-404127D01*
X214002Y-404127D01*
X212335Y-403461D01*
X211502Y-402127D01*
X211502Y-400794D01*
X212335Y-399461D01*
X214002Y-398794D01*
G54D17*
X240591Y-440882D02*
X242258Y-441548D01*
X243091Y-442882D01*
X243091Y-444215D01*
X242258Y-445548D01*
X240591Y-446215D01*
X232258Y-446215D01*
X230591Y-445548D01*
X229758Y-444215D01*
X229758Y-442882D01*
X230591Y-441548D01*
X232258Y-440882D01*
G54D17*
X236425Y-434548D02*
X238091Y-432548D01*
X239758Y-431882D01*
X243091Y-431882D01*
G54D17*
X243091Y-437215D02*
X229758Y-437215D01*
X229758Y-433882D01*
X230591Y-432548D01*
X232258Y-431882D01*
X233925Y-431882D01*
X235591Y-432548D01*
X236425Y-433882D01*
X236425Y-437215D01*
G54D17*
X243091Y-428215D02*
X229758Y-422881D01*
G54D17*
X232258Y-413882D02*
X240591Y-413882D01*
X242258Y-414548D01*
X243091Y-415882D01*
X243091Y-417215D01*
X242258Y-418548D01*
X240591Y-419215D01*
X232258Y-419215D01*
X230591Y-418548D01*
X229758Y-417215D01*
X229758Y-415882D01*
X230591Y-414548D01*
X232258Y-413882D01*
G54D17*
X232258Y-404882D02*
X240591Y-404882D01*
X242258Y-405548D01*
X243091Y-406881D01*
X243091Y-408215D01*
X242258Y-409548D01*
X240591Y-410215D01*
X232258Y-410215D01*
X230591Y-409548D01*
X229758Y-408215D01*
X229758Y-406881D01*
X230591Y-405548D01*
X232258Y-404882D01*
G54D17*
X229758Y-395881D02*
X229758Y-401215D01*
X235591Y-401215D01*
X235591Y-400548D01*
X234758Y-399215D01*
X234758Y-397882D01*
X235591Y-396548D01*
X237258Y-395881D01*
X240591Y-395881D01*
X242258Y-396548D01*
X243091Y-397882D01*
X243091Y-399215D01*
X242258Y-400548D01*
X240591Y-401215D01*
G54D17*
X240591Y-392215D02*
X242258Y-391548D01*
X243091Y-390215D01*
X243091Y-388882D01*
X242258Y-387548D01*
X240591Y-386882D01*
X236425Y-386882D01*
X235591Y-386882D01*
X237258Y-388882D01*
X237258Y-390215D01*
X236425Y-391548D01*
X234758Y-392215D01*
X232258Y-392215D01*
X230591Y-391548D01*
X229758Y-390215D01*
X229758Y-388882D01*
X230591Y-387548D01*
X232258Y-386882D01*
X236425Y-386882D01*
G54D17*
X176814Y-469015D02*
X171814Y-465681D01*
X185148Y-465681D01*
G54D17*
X312148Y-465221D02*
X298814Y-465221D01*
X307148Y-469221D01*
X308814Y-469221D01*
X308814Y-463888D01*
G54D17*
X173521Y-363652D02*
X171854Y-362986D01*
X171021Y-361652D01*
X171021Y-360319D01*
X171854Y-358986D01*
X173521Y-358319D01*
X175187Y-358319D01*
X176854Y-358986D01*
X177687Y-360319D01*
X178521Y-358986D01*
X180187Y-358319D01*
X181854Y-358319D01*
X183521Y-358986D01*
X184354Y-360319D01*
X184354Y-361652D01*
X183521Y-362986D01*
X181854Y-363652D01*
G54D17*
X301314Y-358319D02*
X299648Y-358986D01*
X298814Y-360319D01*
X298814Y-361652D01*
X299648Y-362986D01*
X301314Y-363652D01*
X305481Y-363652D01*
X306314Y-363652D01*
X304648Y-361652D01*
X304648Y-360319D01*
X305481Y-358986D01*
X307148Y-358319D01*
X309648Y-358319D01*
X311314Y-358986D01*
X312148Y-360319D01*
X312148Y-361652D01*
X311314Y-362986D01*
X309648Y-363652D01*
X305481Y-363652D01*
G54D10*
X254279Y-451021D02*
X267773Y-451021D01*
X267773Y-377996D01*
X267773Y-377202D01*
X254279Y-377202D01*
G54D10*
X286754Y-451021D02*
X273260Y-451021D01*
X273260Y-377996D01*
X273260Y-377202D01*
X286754Y-377202D01*
G54D12*
X369437Y-16381D02*
X369437Y-35781D01*
X328837Y-35781D01*
X328837Y-16381D01*
X369437Y-16381D01*
G54D14*
X342600Y-29910D02*
X337266Y-29910D01*
X337266Y-29355D01*
X337933Y-28244D01*
X341933Y-24910D01*
X342600Y-23799D01*
X342600Y-22688D01*
X341933Y-21577D01*
X340600Y-21021D01*
X339266Y-21021D01*
X337933Y-21577D01*
X337266Y-22688D01*
G54D14*
X350300Y-29910D02*
X344966Y-29910D01*
X344966Y-29355D01*
X345633Y-28244D01*
X349633Y-24910D01*
X350300Y-23799D01*
X350300Y-22688D01*
X349633Y-21577D01*
X348300Y-21021D01*
X346966Y-21021D01*
X345633Y-21577D01*
X344966Y-22688D01*
G54D14*
X358000Y-22688D02*
X358000Y-28244D01*
X357333Y-29355D01*
X356000Y-29910D01*
X354666Y-29910D01*
X353333Y-29355D01*
X352666Y-28244D01*
X352666Y-22688D01*
X353333Y-21577D01*
X354666Y-21021D01*
X356000Y-21021D01*
X357333Y-21577D01*
X358000Y-22688D01*
G54D12*
X323425Y-25469D02*
X310725Y-25469D01*
G54D12*
X374225Y-25469D02*
X386925Y-25469D01*
G54D12*
X117162Y-22087D02*
X117162Y-41487D01*
X76562Y-41487D01*
X76562Y-22087D01*
X117162Y-22087D01*
G54D14*
X91025Y-35616D02*
X85691Y-35616D01*
X85691Y-35061D01*
X86358Y-33950D01*
X90358Y-30616D01*
X91025Y-29505D01*
X91025Y-28394D01*
X90358Y-27283D01*
X89025Y-26728D01*
X87691Y-26728D01*
X86358Y-27283D01*
X85691Y-28394D01*
G54D14*
X93391Y-35616D02*
X93391Y-26728D01*
G54D14*
X95391Y-32283D02*
X97391Y-35616D01*
G54D14*
X93391Y-33394D02*
X97391Y-30616D01*
G54D14*
X105125Y-35616D02*
X99791Y-35616D01*
X99791Y-35061D01*
X100458Y-33950D01*
X104458Y-30616D01*
X105125Y-29505D01*
X105125Y-28394D01*
X104458Y-27283D01*
X103125Y-26728D01*
X101791Y-26728D01*
X100458Y-27283D01*
X99791Y-28394D01*
G54D18*
X73460Y-470182D02*
X73460Y-456848D01*
X76794Y-456848D01*
X78127Y-457682D01*
X78794Y-459348D01*
X78794Y-461015D01*
X78127Y-462682D01*
X76794Y-463515D01*
X73460Y-463515D01*
G54D18*
X88794Y-467682D02*
X88127Y-469348D01*
X86794Y-470182D01*
X85460Y-470182D01*
X84127Y-469348D01*
X83460Y-467682D01*
X83460Y-459348D01*
X84127Y-457682D01*
X85460Y-456848D01*
X86794Y-456848D01*
X88127Y-457682D01*
X88794Y-459348D01*
G54D18*
X93460Y-464348D02*
X98794Y-464348D01*
G54D18*
X106127Y-463515D02*
X108127Y-465182D01*
X108794Y-466848D01*
X108794Y-470182D01*
G54D18*
X103460Y-470182D02*
X103460Y-456848D01*
X106794Y-456848D01*
X108127Y-457682D01*
X108794Y-459348D01*
X108794Y-461015D01*
X108127Y-462682D01*
X106794Y-463515D01*
X103460Y-463515D01*
G54D18*
X113460Y-463515D02*
X114794Y-462682D01*
X116394Y-462682D01*
X117460Y-464348D01*
X117460Y-470182D01*
G54D18*
X117460Y-467682D02*
X116794Y-466015D01*
X115460Y-465682D01*
X114127Y-466015D01*
X113460Y-467682D01*
X113727Y-469348D01*
X114794Y-470182D01*
X115460Y-470182D01*
X115727Y-470182D01*
X116794Y-469348D01*
X117460Y-467682D01*
G54D18*
X126127Y-470182D02*
X126127Y-456848D01*
G54D18*
X126127Y-464848D02*
X125461Y-463182D01*
X124127Y-462682D01*
X122794Y-463182D01*
X122127Y-464848D01*
X122127Y-468182D01*
X122794Y-469848D01*
X124127Y-470182D01*
X125461Y-469848D01*
X126127Y-468182D01*
G54D18*
X130794Y-470182D02*
X130794Y-462682D01*
G54D18*
X130794Y-460182D02*
X130794Y-460182D01*
G54D18*
X139461Y-468182D02*
X139461Y-464848D01*
X138795Y-463182D01*
X137461Y-462682D01*
X136128Y-463182D01*
X135461Y-464848D01*
X135461Y-468182D01*
X136128Y-469848D01*
X137461Y-470182D01*
X138795Y-469848D01*
X139461Y-468182D01*
G54D18*
X74004Y-490026D02*
X74004Y-476692D01*
G54D18*
X78671Y-490026D02*
X78671Y-482526D01*
G54D18*
X78671Y-484192D02*
X79338Y-483026D01*
X80671Y-482526D01*
X82004Y-483026D01*
X82671Y-484192D01*
X82671Y-490026D01*
G54D18*
X88671Y-476692D02*
X88671Y-489192D01*
X89338Y-490026D01*
X90005Y-489692D01*
G54D18*
X87338Y-482526D02*
X90005Y-482526D01*
G54D18*
X98672Y-489192D02*
X97605Y-490026D01*
X96272Y-490026D01*
X94939Y-489192D01*
X94672Y-487526D01*
X94672Y-484692D01*
X95339Y-483026D01*
X96672Y-482526D01*
X98005Y-483026D01*
X98672Y-484192D01*
X98672Y-485859D01*
X94672Y-485859D01*
G54D18*
X103339Y-490026D02*
X103339Y-482526D01*
G54D18*
X103339Y-484192D02*
X104672Y-482526D01*
X106006Y-482526D01*
G54D18*
X112006Y-490026D02*
X112006Y-477526D01*
X112673Y-476692D01*
X113340Y-477192D01*
G54D18*
X110673Y-482526D02*
X113340Y-482526D01*
G54D18*
X118007Y-483359D02*
X119340Y-482526D01*
X120940Y-482526D01*
X122007Y-484192D01*
X122007Y-490026D01*
G54D18*
X122007Y-487526D02*
X121340Y-485859D01*
X120007Y-485526D01*
X118674Y-485859D01*
X118007Y-487526D01*
X118274Y-489192D01*
X119340Y-490026D01*
X120007Y-490026D01*
X120274Y-490026D01*
X121340Y-489192D01*
X122007Y-487526D01*
G54D18*
X130007Y-483026D02*
X128674Y-482526D01*
X127341Y-483026D01*
X126674Y-484692D01*
X126674Y-488026D01*
X127341Y-489692D01*
X128674Y-490026D01*
X130007Y-489692D01*
G54D18*
X138674Y-489192D02*
X137607Y-490026D01*
X136274Y-490026D01*
X134941Y-489192D01*
X134674Y-487526D01*
X134674Y-484692D01*
X135341Y-483026D01*
X136674Y-482526D01*
X138007Y-483026D01*
X138674Y-484192D01*
X138674Y-485859D01*
X134674Y-485859D01*
G54D19*
X466770Y-452145D02*
X468992Y-451256D01*
X470103Y-449479D01*
X470103Y-447701D01*
X468992Y-445923D01*
X466770Y-445034D01*
X464548Y-445034D01*
X462326Y-445923D01*
X461215Y-447701D01*
X461215Y-449479D01*
X460103Y-451256D01*
X457881Y-452145D01*
X455659Y-452145D01*
X453437Y-451256D01*
X452326Y-449479D01*
X452326Y-447701D01*
X453437Y-445923D01*
X455659Y-445034D01*
G54D19*
X466770Y-435257D02*
X470103Y-430812D01*
G54D19*
X455659Y-431701D02*
X466770Y-431701D01*
X468992Y-432590D01*
X470103Y-434368D01*
X470103Y-436146D01*
X468992Y-437924D01*
X466770Y-438812D01*
X455659Y-438812D01*
X453437Y-437924D01*
X452326Y-436146D01*
X452326Y-434368D01*
X453437Y-432590D01*
X455659Y-431701D01*
G54D19*
X466770Y-424590D02*
X468992Y-423702D01*
X470103Y-421924D01*
X470103Y-420146D01*
X468992Y-418368D01*
X466770Y-417479D01*
X461215Y-417479D01*
X460103Y-417479D01*
X462326Y-420146D01*
X462326Y-421924D01*
X461215Y-423702D01*
X458992Y-424590D01*
X455659Y-424590D01*
X453437Y-423702D01*
X452326Y-421924D01*
X452326Y-420146D01*
X453437Y-418368D01*
X455659Y-417479D01*
X461215Y-417479D01*
G54D19*
X470103Y-411257D02*
X452326Y-411257D01*
X463437Y-406813D01*
X452326Y-402368D01*
X470103Y-402368D01*
G54D19*
X470103Y-396146D02*
X452326Y-396146D01*
X452326Y-391702D01*
X453437Y-389924D01*
X455659Y-389035D01*
X466770Y-389035D01*
X468992Y-389924D01*
X470103Y-391702D01*
X470103Y-396146D01*
G54D19*
X470103Y-382813D02*
X452326Y-382813D01*
X452326Y-378369D01*
X453437Y-376591D01*
X455659Y-375702D01*
X466770Y-375702D01*
X468992Y-376591D01*
X470103Y-378369D01*
X470103Y-382813D01*
G54D12*
X378644Y-69106D02*
X397644Y-69106D01*
X397644Y-107106D01*
X378644Y-107106D01*
X378644Y-69106D01*
G54D12*
X388144Y-69006D02*
X388144Y-61106D01*
G54D12*
X388144Y-107106D02*
X388144Y-115006D01*
G54D12*
X411956Y-281782D02*
X411956Y-307182D01*
X335756Y-307182D01*
X335756Y-281782D01*
X411956Y-281782D01*
G54D12*
X384209Y-149226D02*
X376609Y-149226D01*
G54D12*
X380409Y-153026D02*
X380409Y-145426D01*
G54D12*
G75*
G01X399454Y-161926D02*
G03X399454Y-161926I-31450J0D01*
G01*
G54D15*
X355707Y-171647D02*
X359040Y-168314D01*
X359040Y-177203D01*
G54D15*
X366817Y-169981D02*
X366817Y-175536D01*
X366151Y-176647D01*
X364817Y-177203D01*
X363484Y-177203D01*
X362151Y-176647D01*
X361484Y-175536D01*
X361484Y-169981D01*
X362151Y-168870D01*
X363484Y-168314D01*
X364817Y-168314D01*
X366151Y-168870D01*
X366817Y-169981D01*
G54D15*
X373261Y-172203D02*
X373261Y-177203D01*
G54D15*
X373261Y-176092D02*
X372594Y-176981D01*
X371261Y-177203D01*
X369928Y-176981D01*
X369261Y-176092D01*
X369261Y-172203D01*
G54D15*
X375705Y-177203D02*
X375705Y-168314D01*
X380372Y-168314D01*
G54D15*
X375705Y-172758D02*
X380372Y-172758D01*
G54D20*
X144462Y-214312D02*
X104775Y-214312D01*
G54D20*
X111919Y-196056D02*
X96044Y-211931D01*
X96044Y-215900D01*
X110331Y-230188D01*
G54D20*
X95314Y-319619D02*
X135002Y-319619D01*
G54D20*
X127858Y-337876D02*
X143733Y-322001D01*
X143733Y-318032D01*
X129445Y-303744D01*
G54D15*
X494653Y-241833D02*
X495764Y-241166D01*
X496320Y-239833D01*
X496320Y-238499D01*
X495764Y-237166D01*
X494653Y-236499D01*
X493542Y-236499D01*
X492431Y-237166D01*
X491875Y-238499D01*
X491875Y-239833D01*
X491320Y-241166D01*
X490208Y-241833D01*
X489097Y-241833D01*
X487986Y-241166D01*
X487431Y-239833D01*
X487431Y-238499D01*
X487986Y-237166D01*
X489097Y-236499D01*
G54D15*
X496320Y-234056D02*
X487431Y-234056D01*
X487431Y-230722D01*
X487986Y-229389D01*
X489097Y-228722D01*
X490208Y-228722D01*
X491320Y-229389D01*
X491875Y-230722D01*
X491875Y-234056D01*
G54D15*
X496320Y-221612D02*
X496320Y-226279D01*
X487431Y-226279D01*
X487431Y-221612D01*
G54D15*
X491875Y-226279D02*
X491875Y-221612D01*
G54D15*
X496320Y-219168D02*
X487431Y-215834D01*
X496320Y-212501D01*
G54D15*
X492986Y-217834D02*
X492986Y-213834D01*
G54D15*
X496320Y-210057D02*
X487431Y-210057D01*
G54D15*
X493542Y-210057D02*
X487431Y-204723D01*
G54D15*
X491875Y-208057D02*
X496320Y-204723D01*
G54D15*
X496320Y-197613D02*
X496320Y-202280D01*
X487431Y-202280D01*
X487431Y-197613D01*
G54D15*
X491875Y-202280D02*
X491875Y-197613D01*
G54D15*
X491875Y-192502D02*
X492986Y-190502D01*
X494097Y-189835D01*
X496320Y-189835D01*
G54D15*
X496320Y-195169D02*
X487431Y-195169D01*
X487431Y-191835D01*
X487986Y-190502D01*
X489097Y-189835D01*
X490208Y-189835D01*
X491320Y-190502D01*
X491875Y-191835D01*
X491875Y-195169D01*
G54D15*
X496320Y-351273D02*
X487431Y-351273D01*
X492987Y-347940D01*
X487431Y-344606D01*
X496320Y-344606D01*
G54D15*
X496320Y-342162D02*
X487431Y-342162D01*
G54D15*
X494653Y-334385D02*
X495764Y-335052D01*
X496320Y-336385D01*
X496320Y-337718D01*
X495764Y-339051D01*
X494653Y-339718D01*
X489098Y-339718D01*
X487987Y-339051D01*
X487431Y-337718D01*
X487431Y-336385D01*
X487987Y-335052D01*
X489098Y-334385D01*
G54D15*
X491876Y-329274D02*
X492987Y-327274D01*
X494098Y-326608D01*
X496320Y-326608D01*
G54D15*
X496320Y-331941D02*
X487431Y-331941D01*
X487431Y-328608D01*
X487987Y-327274D01*
X489098Y-326608D01*
X490209Y-326608D01*
X491320Y-327274D01*
X491876Y-328608D01*
X491876Y-331941D01*
G54D15*
X489098Y-318831D02*
X494653Y-318831D01*
X495764Y-319498D01*
X496320Y-320831D01*
X496320Y-322164D01*
X495764Y-323497D01*
X494653Y-324164D01*
X489098Y-324164D01*
X487987Y-323497D01*
X487431Y-322164D01*
X487431Y-320831D01*
X487987Y-319498D01*
X489098Y-318831D01*
G54D15*
X496320Y-316387D02*
X487431Y-316387D01*
X487431Y-313054D01*
X487987Y-311720D01*
X489098Y-311054D01*
X490209Y-311054D01*
X491320Y-311720D01*
X491876Y-313054D01*
X491876Y-316387D01*
G54D15*
X496320Y-308610D02*
X487431Y-308610D01*
G54D15*
X496320Y-303277D02*
X487431Y-303277D01*
G54D15*
X491876Y-308610D02*
X491876Y-303277D01*
G54D15*
X489098Y-295500D02*
X494653Y-295500D01*
X495764Y-296166D01*
X496320Y-297500D01*
X496320Y-298833D01*
X495764Y-300166D01*
X494653Y-300833D01*
X489098Y-300833D01*
X487987Y-300166D01*
X487431Y-298833D01*
X487431Y-297500D01*
X487987Y-296166D01*
X489098Y-295500D01*
G54D15*
X496320Y-293056D02*
X487431Y-293056D01*
X496320Y-287723D01*
X487431Y-287723D01*
G54D15*
X496320Y-280612D02*
X496320Y-285279D01*
X487431Y-285279D01*
X487431Y-280612D01*
G54D15*
X491876Y-285279D02*
X491876Y-280612D01*
G54D15*
X358882Y-241497D02*
X362215Y-238164D01*
X362215Y-247053D01*
G54D15*
X369992Y-239831D02*
X369992Y-245386D01*
X369326Y-246497D01*
X367992Y-247053D01*
X366659Y-247053D01*
X365326Y-246497D01*
X364659Y-245386D01*
X364659Y-239831D01*
X365326Y-238720D01*
X366659Y-238164D01*
X367992Y-238164D01*
X369326Y-238720D01*
X369992Y-239831D01*
G54D15*
X372436Y-247053D02*
X372436Y-238164D01*
G54D15*
X374436Y-243720D02*
X376436Y-247053D01*
G54D15*
X372436Y-244831D02*
X376436Y-242053D01*
G54D15*
X339832Y-278009D02*
X339832Y-269120D01*
X343165Y-269120D01*
X344498Y-269675D01*
X345165Y-270786D01*
X345165Y-271898D01*
X344498Y-273009D01*
X343165Y-273564D01*
X339832Y-273564D01*
G54D15*
X350275Y-278009D02*
X350275Y-269120D01*
G54D15*
X347608Y-269120D02*
X352942Y-269120D01*
G54D15*
X358052Y-278009D02*
X358052Y-269120D01*
G54D15*
X355386Y-269120D02*
X360719Y-269120D01*
G54D15*
X365740Y-274120D02*
X371073Y-274120D01*
G54D15*
X368406Y-271898D02*
X368406Y-276342D01*
G54D15*
X376094Y-278009D02*
X379427Y-269120D01*
X382760Y-278009D01*
G54D15*
X377427Y-274675D02*
X381427Y-274675D01*
G54D15*
X385205Y-269120D02*
X385204Y-276342D01*
X385871Y-277453D01*
X387205Y-278009D01*
X388538Y-278009D01*
X389871Y-277453D01*
X390538Y-276342D01*
X390538Y-269120D01*
G54D15*
X392982Y-278009D02*
X392982Y-269120D01*
X396315Y-269120D01*
X397648Y-269675D01*
X398315Y-270786D01*
X398315Y-276342D01*
X397648Y-277453D01*
X396315Y-278009D01*
X392982Y-278009D01*
G54D15*
X400759Y-278009D02*
X400758Y-269120D01*
G54D15*
X408536Y-270786D02*
X408536Y-276342D01*
X407869Y-277453D01*
X406536Y-278009D01*
X405202Y-278009D01*
X403869Y-277453D01*
X403203Y-276342D01*
X403203Y-270786D01*
X403869Y-269675D01*
X405203Y-269120D01*
X406536Y-269120D01*
X407869Y-269675D01*
X408536Y-270786D01*
G54D15*
X14508Y-178581D02*
X5619Y-178581D01*
X5619Y-183248D01*
G54D15*
X5619Y-185692D02*
X10619Y-185692D01*
G54D15*
X12285Y-185692D02*
X12285Y-185692D01*
G54D15*
X5619Y-188136D02*
X10619Y-188136D01*
G54D15*
X9508Y-188136D02*
X10285Y-188803D01*
X10619Y-190136D01*
X10285Y-191470D01*
X9508Y-192136D01*
X5619Y-192136D01*
G54D15*
X6174Y-198580D02*
X5619Y-197514D01*
X5619Y-196180D01*
X6174Y-194847D01*
X7285Y-194580D01*
X9174Y-194580D01*
X10285Y-195247D01*
X10619Y-196580D01*
X10285Y-197914D01*
X9508Y-198580D01*
X8397Y-198580D01*
X8397Y-194580D01*
G54D15*
X5619Y-203601D02*
X14508Y-203601D01*
G54D15*
X5619Y-206045D02*
X14508Y-206045D01*
X5619Y-211379D01*
X14508Y-211379D01*
G54D15*
X5619Y-213822D02*
X14508Y-219156D01*
G54D15*
X5619Y-221599D02*
X14508Y-221599D01*
X8952Y-224933D01*
X14508Y-228266D01*
X5619Y-228266D01*
G54D15*
X5619Y-230710D02*
X14508Y-230710D01*
G54D15*
X7285Y-238488D02*
X6174Y-237821D01*
X5619Y-236488D01*
X5619Y-235154D01*
X6174Y-233821D01*
X7285Y-233154D01*
X12841Y-233154D01*
X13952Y-233821D01*
X14508Y-235154D01*
X14508Y-236488D01*
X13952Y-237821D01*
X12841Y-238488D01*
G54D14*
X13714Y-286819D02*
X4825Y-286819D01*
X4825Y-291485D01*
G54D14*
X4825Y-293919D02*
X9825Y-293919D01*
G54D14*
X11492Y-293919D02*
X11492Y-293919D01*
G54D14*
X4825Y-296319D02*
X9825Y-296319D01*
G54D14*
X8714Y-296319D02*
X9492Y-296985D01*
X9825Y-298319D01*
X9492Y-299652D01*
X8714Y-300319D01*
X4825Y-300319D01*
G54D14*
X5381Y-306719D02*
X4825Y-305652D01*
X4825Y-304319D01*
X5381Y-302985D01*
X6492Y-302719D01*
X8381Y-302719D01*
X9492Y-303386D01*
X9825Y-304719D01*
X9492Y-306052D01*
X8714Y-306719D01*
X7603Y-306719D01*
X7603Y-302719D01*
G54D14*
X12047Y-316952D02*
X6492Y-316952D01*
X5381Y-316285D01*
X4825Y-314952D01*
X4825Y-313619D01*
X5381Y-312285D01*
X6492Y-311619D01*
X12047Y-311619D01*
X13158Y-312286D01*
X13714Y-313619D01*
X13714Y-314952D01*
X13158Y-316286D01*
X12047Y-316952D01*
G54D14*
X13714Y-319319D02*
X6492Y-319319D01*
X5381Y-319985D01*
X4825Y-321319D01*
X4825Y-322652D01*
X5381Y-323985D01*
X6492Y-324652D01*
X13714Y-324652D01*
G54D14*
X4825Y-329686D02*
X13714Y-329685D01*
G54D14*
X13714Y-327019D02*
X13714Y-332352D01*
G54D14*
X9269Y-81223D02*
X8158Y-83223D01*
X7047Y-83890D01*
X4825Y-83890D01*
G54D14*
X4825Y-78556D02*
X13714Y-78556D01*
X13714Y-81890D01*
X13158Y-83223D01*
X12047Y-83890D01*
X10936Y-83890D01*
X9825Y-83223D01*
X9269Y-81890D01*
X9269Y-78556D01*
G54D14*
X4825Y-88923D02*
X13714Y-88923D01*
G54D14*
X13714Y-86256D02*
X13714Y-91590D01*
G54D14*
X6492Y-93956D02*
X5381Y-94623D01*
X4825Y-95956D01*
X4825Y-97290D01*
X5381Y-98623D01*
X6492Y-99290D01*
X7603Y-99290D01*
X8714Y-98623D01*
X9269Y-97290D01*
X9269Y-95956D01*
X9825Y-94623D01*
X10936Y-93956D01*
X12047Y-93956D01*
X13158Y-94623D01*
X13714Y-95956D01*
X13714Y-97290D01*
X13158Y-98623D01*
X12047Y-99290D01*
G54D14*
X9269Y-128848D02*
X9269Y-131515D01*
X6492Y-131515D01*
X5381Y-130848D01*
X4825Y-129515D01*
X4825Y-128181D01*
X5381Y-126848D01*
X6492Y-126181D01*
X12047Y-126181D01*
X13158Y-126848D01*
X13714Y-128181D01*
X13714Y-129515D01*
X13158Y-130848D01*
X12047Y-131515D01*
G54D14*
X4825Y-133881D02*
X13714Y-133881D01*
X4825Y-139215D01*
X13714Y-139215D01*
G54D14*
X4825Y-141581D02*
X13714Y-141581D01*
X13714Y-144915D01*
X13158Y-146248D01*
X12047Y-146915D01*
X6492Y-146915D01*
X5381Y-146248D01*
X4825Y-144915D01*
X4825Y-141581D01*
G54D15*
X345034Y-318821D02*
X350589Y-318821D01*
X351700Y-319487D01*
X352256Y-320821D01*
X352256Y-322154D01*
X351700Y-323487D01*
X350589Y-324154D01*
X345034Y-324154D01*
X343923Y-323487D01*
X343367Y-322154D01*
X343367Y-320821D01*
X343923Y-319487D01*
X345034Y-318821D01*
G54D15*
X352256Y-316377D02*
X343367Y-316377D01*
X352256Y-311044D01*
X343367Y-311044D01*
G54D15*
X397421Y-324377D02*
X402977Y-324377D01*
X404088Y-325044D01*
X404643Y-326377D01*
X404643Y-327710D01*
X404088Y-329044D01*
X402977Y-329710D01*
X397421Y-329710D01*
X396310Y-329044D01*
X395755Y-327710D01*
X395755Y-326377D01*
X396310Y-325044D01*
X397421Y-324377D01*
G54D15*
X404643Y-321933D02*
X395755Y-321933D01*
X395755Y-317266D01*
G54D15*
X400199Y-321933D02*
X400199Y-317266D01*
G54D15*
X404643Y-314822D02*
X395755Y-314822D01*
X395755Y-310156D01*
G54D15*
X400199Y-314822D02*
X400199Y-310156D01*
G54D15*
X391943Y-91014D02*
X391943Y-96348D01*
X391388Y-96348D01*
X390277Y-95681D01*
X386943Y-91681D01*
X385832Y-91014D01*
X384721Y-91014D01*
X383610Y-91681D01*
X383055Y-93014D01*
X383055Y-94348D01*
X383610Y-95681D01*
X384721Y-96348D01*
G54D15*
X391943Y-88571D02*
X383055Y-88571D01*
G54D15*
X388610Y-86571D02*
X391943Y-84571D01*
G54D15*
X389721Y-88571D02*
X386943Y-84571D01*
G54D15*
X391943Y-76793D02*
X391943Y-82127D01*
X391388Y-82127D01*
X390277Y-81460D01*
X386943Y-77460D01*
X385832Y-76793D01*
X384721Y-76793D01*
X383610Y-77460D01*
X383055Y-78793D01*
X383055Y-80127D01*
X383610Y-81460D01*
X384721Y-82127D01*
G54D12*
X385797Y-339726D02*
X378197Y-339726D01*
G54D12*
X381997Y-343526D02*
X381997Y-335926D01*
G54D12*
G75*
G01X401042Y-352426D02*
G03X401042Y-352426I-31450J0D01*
G01*
G54D15*
X355707Y-374847D02*
X359040Y-371514D01*
X359040Y-380403D01*
G54D15*
X366817Y-373181D02*
X366817Y-378736D01*
X366151Y-379847D01*
X364817Y-380403D01*
X363484Y-380403D01*
X362151Y-379847D01*
X361484Y-378736D01*
X361484Y-373181D01*
X362151Y-372070D01*
X363484Y-371514D01*
X364817Y-371514D01*
X366151Y-372070D01*
X366817Y-373181D01*
G54D15*
X373261Y-375403D02*
X373261Y-380403D01*
G54D15*
X373261Y-379292D02*
X372594Y-380181D01*
X371261Y-380403D01*
X369928Y-380181D01*
X369261Y-379292D01*
X369261Y-375403D01*
G54D15*
X375705Y-380403D02*
X375705Y-371514D01*
X380372Y-371514D01*
G54D15*
X375705Y-375958D02*
X380372Y-375958D01*
G54D14*
X491869Y-145836D02*
X491870Y-143169D01*
X494647Y-143169D01*
X495758Y-143836D01*
X496314Y-145169D01*
X496314Y-146502D01*
X495758Y-147836D01*
X494647Y-148502D01*
X489092Y-148502D01*
X487980Y-147836D01*
X487425Y-146502D01*
X487425Y-145169D01*
X487980Y-143836D01*
X489092Y-143169D01*
G54D14*
X496314Y-140802D02*
X487425Y-140802D01*
X496314Y-135469D01*
X487425Y-135469D01*
G54D14*
X496314Y-133102D02*
X487425Y-133102D01*
X487425Y-129769D01*
X487981Y-128436D01*
X489092Y-127769D01*
X494647Y-127769D01*
X495758Y-128436D01*
X496314Y-129769D01*
X496314Y-133102D01*
G54D14*
X496314Y-97260D02*
X487425Y-97260D01*
X487425Y-93927D01*
X487980Y-92593D01*
X489092Y-91927D01*
X490203Y-91926D01*
X491314Y-92593D01*
X491869Y-93927D01*
X491869Y-97260D01*
G54D14*
X496314Y-86893D02*
X487425Y-86893D01*
G54D14*
X487425Y-89560D02*
X487425Y-84227D01*
G54D14*
X496314Y-79193D02*
X487425Y-79193D01*
G54D14*
X487425Y-81860D02*
X487425Y-76527D01*
G54D15*
X102501Y-389135D02*
X105834Y-385801D01*
X105834Y-394690D01*
G54D15*
X113611Y-387468D02*
X113611Y-393024D01*
X112945Y-394135D01*
X111611Y-394690D01*
X110278Y-394690D01*
X108945Y-394135D01*
X108278Y-393024D01*
X108278Y-387468D01*
X108945Y-386357D01*
X110278Y-385801D01*
X111611Y-385801D01*
X112945Y-386357D01*
X113611Y-387468D01*
G54D15*
X116055Y-394690D02*
X116055Y-385801D01*
G54D15*
X118055Y-391357D02*
X120055Y-394690D01*
G54D15*
X116055Y-392468D02*
X120055Y-389690D01*
G54D12*
X339725Y-414338D02*
X339725Y-388938D01*
X441325Y-388938D01*
X441325Y-414338D01*
X339725Y-414338D01*
G54D12*
X339725Y-439738D02*
X339725Y-414338D01*
X441325Y-414338D01*
X441325Y-439738D01*
X339725Y-439738D01*
G54D12*
X339725Y-465138D02*
X339725Y-439738D01*
X441325Y-439738D01*
X441325Y-465138D01*
X339725Y-465138D01*
G54D12*
X339725Y-490538D02*
X339725Y-465138D01*
X441325Y-465138D01*
X441325Y-490538D01*
X339725Y-490538D01*
M02*
