; Drill file
; Format: 2.4 (00.0000)
M48
INCH
T01C0.0236
T02C0.0283
T03C0.0315
T04C0.032
T05C0.0402
T06C0.045
T07C0.05
T08C0.126
%
G05
G90
T01
X015280Y-004970
X015280Y-001970
T02
X013870Y-018810
X013870Y-017810
X013870Y-016810
X013870Y-015810
X014880Y-015810
X015870Y-015810
X016880Y-015810
X016880Y-016810
X015870Y-016810
X014880Y-016810
X014880Y-017810
X015870Y-017810
X016880Y-017810
X016880Y-018810
X015870Y-018810
X014880Y-018810
X015040Y-013880
X014060Y-013880
X013720Y-011590
X014720Y-011590
X015720Y-011590
X014980Y-006380
X014000Y-006380
X015750Y-001030
X011750Y-001030
X004750Y-001250
X002880Y-001250
T03
X007040Y-017770
X007040Y-014810
X007040Y-010240
X007040Y-007280
X012070Y-007280
X012070Y-010240
X012070Y-014810
X012070Y-017770
T04
X007560Y-003070
X007560Y-002070
X007560Y-001070
X010560Y-001070
X010560Y-002070
X010560Y-003070
X013340Y-003970
X014340Y-002970
X013340Y-001970
T05
X005440Y-004930
X005440Y-003930
X005930Y-002420
X004930Y-002420
T06
X001710Y-013430
X001710Y-011430
X001710Y-009430
X001710Y-007430
X001710Y-005430
X001710Y-003430
X018050Y-003430
X018050Y-005430
X018050Y-007430
X018050Y-009430
X018050Y-011430
X018050Y-013430
T07
X003340Y-017120
X003340Y-015120
X005340Y-016120
X013670Y-008950
X015670Y-007950
X015670Y-009950
T08
X001120Y-019000
X018620Y-019000
X018620Y-001120
X001120Y-001120
M30
